<svg xmlns="http://www.w3.org/2000/svg" version="1.1" xmlns:xlink="http://www.w3.org/1999/xlink" xmlns:svgjs="http://svgjs.dev/svgjs" width="1920" height="1080" preserveAspectRatio="none" viewBox="0 0 1920 1080"><g mask="url(&quot;#SvgjsMask1742&quot;)" fill="none"><rect width="1920" height="1080" x="0" y="0" fill="url(&quot;#SvgjsLinearGradient1743&quot;)"></rect><path d="M1920 0L1064.0700000000002 0L1920 248.63z" fill="rgba(255, 255, 255, .1)"></path><path d="M1064.0700000000002 0L1920 248.63L1920 706.0899999999999L626.2000000000002 0z" fill="rgba(255, 255, 255, .075)"></path><path d="M626.2 0L1920 706.0899999999999L1920 930.5899999999999L494.47 0z" fill="rgba(255, 255, 255, .05)"></path><path d="M494.47 0L1920 930.5899999999999L1920 1036.8L396.44000000000005 0z" fill="rgba(255, 255, 255, .025)"></path><path d="M0 1080L445.86 1080L0 817.64z" fill="rgba(0, 0, 0, .1)"></path><path d="M0 817.64L445.86 1080L858.81 1080L0 638.24z" fill="rgba(0, 0, 0, .075)"></path><path d="M0 638.24L858.81 1080L1481.17 1080L0 525.4300000000001z" fill="rgba(0, 0, 0, .05)"></path><path d="M0 525.4300000000001L1481.17 1080L1700.43 1080L0 250.12000000000006z" fill="rgba(0, 0, 0, .025)"></path></g><defs><mask id="SvgjsMask1742"><rect width="1920" height="1080" fill="#ffffff"></rect></mask><linearGradient x1="10.94%" y1="-19.44%" x2="89.06%" y2="119.44%" gradientUnits="userSpaceOnUse" id="SvgjsLinearGradient1743"><stop stop-color="rgba(0, 91, 151, 1)" offset="0"></stop><stop stop-color="rgba(41, 128, 185, 1)" offset="1"></stop></linearGradient></defs></svg>