<svg xmlns="http://www.w3.org/2000/svg" version="1.1" xmlns:xlink="http://www.w3.org/1999/xlink" xmlns:svgjs="http://svgjs.dev/svgjs" width="2560" height="1440" preserveAspectRatio="none" viewBox="0 0 2560 1440"><g mask="url(&quot;#SvgjsMask1014&quot;)" fill="none"><rect width="2560" height="1440" x="0" y="0" fill="url(&quot;#SvgjsLinearGradient1015&quot;)"></rect><path d="M2560 0L2403.33 0L2560 676.07z" fill="rgba(255, 255, 255, .1)"></path><path d="M2403.33 0L2560 676.07L2560 884.69L1574.1999999999998 0z" fill="rgba(255, 255, 255, .075)"></path><path d="M1574.2 0L2560 884.69L2560 928.46L813.62 0z" fill="rgba(255, 255, 255, .05)"></path><path d="M813.6199999999999 0L2560 928.46L2560 1266.22L596.05 0z" fill="rgba(255, 255, 255, .025)"></path><path d="M0 1440L964.62 1440L0 1012.81z" fill="rgba(0, 0, 0, .1)"></path><path d="M0 1012.81L964.62 1440L1120.18 1440L0 465.01z" fill="rgba(0, 0, 0, .075)"></path><path d="M0 465.01L1120.18 1440L1617.38 1440L0 377.8z" fill="rgba(0, 0, 0, .05)"></path><path d="M0 377.79999999999995L1617.38 1440L1659.6000000000001 1440L0 199.33999999999995z" fill="rgba(0, 0, 0, .025)"></path></g><defs><mask id="SvgjsMask1014"><rect width="2560" height="1440" fill="#ffffff"></rect></mask><linearGradient x1="10.94%" y1="-19.44%" x2="89.06%" y2="119.44%" gradientUnits="userSpaceOnUse" id="SvgjsLinearGradient1015"><stop stop-color="rgba(0, 91, 151, 1)" offset="0"></stop><stop stop-color="rgba(41, 128, 185, 1)" offset="1"></stop></linearGradient></defs></svg>